<svg xmlns="http://www.w3.org/2000/svg">
  <defs>
    <symbol id="i-home" viewBox="0 0 24 24"><path d="M3.5 11 12 4l8.5 7M5.5 10v10h13V10M9.5 20v-6h5v6"/></symbol>
    <symbol id="i-orders" viewBox="0 0 24 24"><rect x="5" y="3.5" width="14" height="17" rx="2"/><path d="M8.5 8h7M8.5 12h7M8.5 16h4"/></symbol>
    <symbol id="i-invoice" viewBox="0 0 24 24"><path d="M6 3.5h9l3 3v14H6zM14.5 3.5V7H18M9 11h6M9 15h6"/></symbol>
    <symbol id="i-info" viewBox="0 0 24 24"><circle cx="12" cy="12" r="9"/><path d="M12 11v6M12 7.5v.2"/></symbol>
    <symbol id="i-plus" viewBox="0 0 24 24"><path d="M12 5v14M5 12h14"/></symbol>
    <symbol id="i-search" viewBox="0 0 24 24"><circle cx="11" cy="11" r="7"/><path d="m20 20-4.2-4.2"/></symbol>
    <symbol id="i-filter" viewBox="0 0 24 24"><path d="M4 6h16M7 12h10M10 18h4"/></symbol>
    <symbol id="i-back" viewBox="0 0 24 24"><path d="m15 18-6-6 6-6"/></symbol>
    <symbol id="i-edit" viewBox="0 0 24 24"><path d="m4 20 4.2-1 10.4-10.4-3.2-3.2L5 15.8zM13.8 7l3.2 3.2"/></symbol>
    <symbol id="i-trash" viewBox="0 0 24 24"><path d="M4 7h16M9 7V4h6v3M7 7l1 13h8l1-13M10 11v5M14 11v5"/></symbol>
    <symbol id="i-restaurant" viewBox="0 0 24 24"><path d="M6 3v8M3.5 3v5c0 2 1.2 3 2.5 3s2.5-1 2.5-3V3M6 11v10M15 3v18M15 3c3 2 4.5 5 4.5 8H15"/></symbol>
    <symbol id="i-download" viewBox="0 0 24 24"><path d="M12 3v12m-4-4 4 4 4-4M4 17v3h16v-3"/></symbol>
    <symbol id="i-store" viewBox="0 0 24 24"><path d="M4 9h16l-2-5H6zM5 9v11h14V9M9 20v-6h6v6"/><path d="M4 9c0 2 3 2 4 0 1 2 3 2 4 0 1 2 3 2 4 0 1 2 4 2 4 0"/></symbol>
    <symbol id="i-chevron" viewBox="0 0 24 24"><path d="m9 6 6 6-6 6"/></symbol>
    <symbol id="i-calendar" viewBox="0 0 24 24"><rect x="4" y="5" width="16" height="15" rx="2"/><path d="M8 3v4M16 3v4M4 10h16"/></symbol>
    <symbol id="i-link" viewBox="0 0 24 24"><path d="M10 14 8.5 15.5a4 4 0 0 1-5.7-5.7L6 6.6a4 4 0 0 1 5.7 0M14 10l1.5-1.5a4 4 0 1 1 5.7 5.7L18 17.4a4 4 0 0 1-5.7 0M8.5 12h7"/></symbol>
    <symbol id="i-unlink" viewBox="0 0 24 24"><path d="m3 3 18 18M10 14l-1.5 1.5a4 4 0 0 1-5.7-5.7L6 6.6a4 4 0 0 1 5.7 0M14 10l1.5-1.5a4 4 0 1 1 5.7 5.7L18 17.4"/></symbol>
    <symbol id="i-image" viewBox="0 0 24 24"><rect x="3.5" y="4" width="17" height="16" rx="2"/><circle cx="9" cy="9" r="1.5"/><path d="m5.5 17 4.5-4.5 3 3 2-2 3.5 3.5"/></symbol>
    <symbol id="i-scan" viewBox="0 0 24 24"><path d="M8 4H4v4M16 4h4v4M8 20H4v-4M16 20h4v-4M7 12h10M9 9h6M9 15h6"/></symbol>
    <symbol id="i-file" viewBox="0 0 24 24"><path d="M6 3.5h9l3 3v14H6zM14.5 3.5V7H18"/></symbol>
    <symbol id="i-sliders" viewBox="0 0 24 24"><path d="M4 6h5M15 6h5M12 3v6M4 12h10M18 12h2M16 9v6M4 18h2M12 18h8M9 15v6"/></symbol>
    <symbol id="i-storage" viewBox="0 0 24 24"><ellipse cx="12" cy="6" rx="8" ry="3"/><path d="M4 6v6c0 1.7 3.6 3 8 3s8-1.3 8-3V6M4 12v6c0 1.7 3.6 3 8 3s8-1.3 8-3v-6"/></symbol>
    <symbol id="i-shield" viewBox="0 0 24 24"><path d="M12 3.5 19 6v5.5c0 4.3-2.9 7.3-7 9-4.1-1.7-7-4.7-7-9V6z"/><path d="m9 12 2 2 4-4"/></symbol>
    <symbol id="i-code" viewBox="0 0 24 24"><path d="m8 7-5 5 5 5M16 7l5 5-5 5M14 4l-4 16"/></symbol>
    <symbol id="i-history" viewBox="0 0 24 24"><path d="M4 7v5h5M5 12a8 8 0 1 0 2-5.3L4 9M12 8v5l3 2"/></symbol>
    <symbol id="i-cloud" viewBox="0 0 24 24"><path d="M7 18h11a4 4 0 0 0 .6-8A7 7 0 0 0 5.5 8.5 4.8 4.8 0 0 0 7 18z"/><path d="m9 14 3-3 3 3M12 11v8"/></symbol>
    <symbol id="i-refresh" viewBox="0 0 24 24"><path d="M20 7v5h-5M4 17v-5h5M18.5 12a6.5 6.5 0 0 0-11-4.7L4 12M5.5 12a6.5 6.5 0 0 0 11 4.7L20 12"/></symbol>
    <symbol id="i-list" viewBox="0 0 24 24"><path d="M8 6h12M8 12h12M8 18h12"/><circle cx="4" cy="6" r="1"/><circle cx="4" cy="12" r="1"/><circle cx="4" cy="18" r="1"/></symbol>
    <symbol id="i-today" viewBox="0 0 24 24"><rect x="4" y="5" width="16" height="15" rx="2"/><path d="M8 3v4M16 3v4M4 10h16M9 14h6"/></symbol>
    <symbol id="i-month" viewBox="0 0 24 24"><rect x="4" y="5" width="16" height="15" rx="2"/><path d="M8 3v4M16 3v4M4 10h16M8 14h2M14 14h2M8 17h2M14 17h2"/></symbol>
    <symbol id="i-range" viewBox="0 0 24 24"><rect x="3.5" y="5" width="17" height="15" rx="2"/><path d="M8 3v4M16 3v4M3.5 10h17M8 15h8M8 15l2-2M8 15l2 2M16 15l-2-2M16 15l-2 2"/></symbol>
    <symbol id="i-camera" viewBox="0 0 24 24"><path d="M4 8h4l2-3h4l2 3h4v11H4z"/><circle cx="12" cy="13" r="4"/></symbol>
    <symbol id="i-gallery" viewBox="0 0 24 24"><rect x="3.5" y="4" width="17" height="16" rx="2"/><circle cx="9" cy="9" r="1.5"/><path d="m5.5 17 4.5-4.5 3 3 2-2 3.5 3.5"/></symbol>
    <symbol id="i-pdf" viewBox="0 0 24 24"><path d="M6 3.5h9l3 3v14H6zM14.5 3.5V7H18"/><path d="M8.5 16v-5h2a1.5 1.5 0 0 1 0 3h-2M13 16v-5h1.2c1.8 0 2.8.9 2.8 2.5S16 16 14.2 16z"/></symbol>
    <symbol id="i-check" viewBox="0 0 24 24"><path d="m5 12 4 4L19 6"/></symbol>
    <symbol id="i-share" viewBox="0 0 24 24"><circle cx="18" cy="5" r="2.5"/><circle cx="6" cy="12" r="2.5"/><circle cx="18" cy="19" r="2.5"/><path d="m8.2 10.8 7.6-4.5M8.2 13.2l7.6 4.5"/></symbol>
    <symbol id="i-note" viewBox="0 0 24 24"><path d="M5 4h14v16H5zM8 8h8M8 12h8M8 16h5"/></symbol>
  </defs>
</svg>
