<svg xmlns="http://www.w3.org/2000/svg">
  <defs>
    <symbol id="i-home" viewBox="0 0 24 24"><path d="M3.5 11 12 4l8.5 7M5.5 10v10h13V10M9.5 20v-6h5v6"/></symbol>
    <symbol id="i-orders" viewBox="0 0 24 24"><rect x="5" y="3.5" width="14" height="17" rx="2"/><path d="M8.5 8h7M8.5 12h7M8.5 16h4"/></symbol>
    <symbol id="i-invoice" viewBox="0 0 24 24"><path d="M6 3.5h9l3 3v14H6zM14.5 3.5V7H18M9 11h6M9 15h6"/></symbol>
    <symbol id="i-package" viewBox="0 0 24 24"><path d="m4 7 8-4 8 4-8 4zM4 7v10l8 4 8-4V7M12 11v10"/></symbol>
    <symbol id="i-plus" viewBox="0 0 24 24"><path d="M12 5v14M5 12h14"/></symbol>
    <symbol id="i-gear" viewBox="0 0 24 24"><circle cx="12" cy="12" r="3"/><path d="M19.4 15a1.7 1.7 0 0 0 .3 1.9l.1.1-2.8 2.8-.1-.1a1.7 1.7 0 0 0-1.9-.3 1.7 1.7 0 0 0-1 1.6v.2h-4V21a1.7 1.7 0 0 0-1-1.6 1.7 1.7 0 0 0-1.9.3l-.1.1L4.2 17l.1-.1a1.7 1.7 0 0 0 .3-1.9A1.7 1.7 0 0 0 3 14H2.8v-4H3a1.7 1.7 0 0 0 1.6-1 1.7 1.7 0 0 0-.3-1.9L4.2 7 7 4.2l.1.1A1.7 1.7 0 0 0 9 4.6a1.7 1.7 0 0 0 1-1.6v-.2h4V3a1.7 1.7 0 0 0 1 1.6 1.7 1.7 0 0 0 1.9-.3l.1-.1L19.8 7l-.1.1a1.7 1.7 0 0 0-.3 1.9 1.7 1.7 0 0 0 1.6 1h.2v4H21a1.7 1.7 0 0 0-1.6 1z"/></symbol>
    <symbol id="i-calendar" viewBox="0 0 24 24"><rect x="4" y="5" width="16" height="15" rx="2"/><path d="M8 3v4M16 3v4M4 10h16"/></symbol>
    <symbol id="i-check" viewBox="0 0 24 24"><path d="m5 12 4 4L19 6"/></symbol>
    <symbol id="i-clock" viewBox="0 0 24 24"><circle cx="12" cy="12" r="9"/><path d="M12 7v5l3.5 2"/></symbol>
    <symbol id="i-alert" viewBox="0 0 24 24"><path d="M12 3 2.8 20h18.4zM12 9v5M12 17.5v.2"/></symbol>
    <symbol id="i-arrow" viewBox="0 0 24 24"><path d="M5 12h14m-5-5 5 5-5 5"/></symbol>
    <symbol id="i-chevron" viewBox="0 0 24 24"><path d="m9 6 6 6-6 6"/></symbol>
    <symbol id="i-back" viewBox="0 0 24 24"><path d="m15 18-6-6 6-6"/></symbol>
    <symbol id="i-store" viewBox="0 0 24 24"><path d="M4 9h16l-2-5H6zM5 9v11h14V9M9 20v-6h6v6"/><path d="M4 9c0 2 3 2 4 0 1 2 3 2 4 0 1 2 3 2 4 0 1 2 4 2 4 0"/></symbol>
    <symbol id="i-link" viewBox="0 0 24 24"><path d="M10 14 8.5 15.5a4 4 0 0 1-5.7-5.7L6 6.6a4 4 0 0 1 5.7 0M14 10l1.5-1.5a4 4 0 1 1 5.7 5.7L18 17.4a4 4 0 0 1-5.7 0M8.5 12h7"/></symbol>
    <symbol id="i-image" viewBox="0 0 24 24"><rect x="3.5" y="4" width="17" height="16" rx="2"/><circle cx="9" cy="9" r="1.5"/><path d="m5.5 17 4.5-4.5 3 3 2-2 3.5 3.5"/></symbol>
    <symbol id="i-pdf" viewBox="0 0 24 24"><path d="M6 3.5h9l3 3v14H6zM14.5 3.5V7H18"/><path d="M8.5 16v-5h2a1.5 1.5 0 0 1 0 3h-2M13 16v-5h1.2c1.8 0 2.8.9 2.8 2.5S16 16 14.2 16z"/></symbol>
    <symbol id="i-scan" viewBox="0 0 24 24"><path d="M8 4H4v4M16 4h4v4M8 20H4v-4M16 20h4v-4M7 12h10M9 9h6M9 15h6"/></symbol>
    <symbol id="i-spark" viewBox="0 0 24 24"><path d="m12 3 1.5 5.5L19 10l-5.5 1.5L12 17l-1.5-5.5L5 10l5.5-1.5zM19 16l.7 2.3L22 19l-2.3.7L19 22l-.7-2.3L16 19l2.3-.7z"/></symbol>
    <symbol id="i-edit" viewBox="0 0 24 24"><path d="m4 20 4.2-1 10.4-10.4-3.2-3.2L5 15.8zM13.8 7l3.2 3.2"/></symbol>
    <symbol id="i-share" viewBox="0 0 24 24"><circle cx="18" cy="5" r="2.5"/><circle cx="6" cy="12" r="2.5"/><circle cx="18" cy="19" r="2.5"/><path d="m8.2 10.8 7.6-4.5M8.2 13.2l7.6 4.5"/></symbol>
    <symbol id="i-folder" viewBox="0 0 24 24"><path d="M3.5 6.5h7l2 2h8v11h-17z"/></symbol>
    <symbol id="i-filter" viewBox="0 0 24 24"><path d="M4 6h16M7 12h10M10 18h4"/></symbol>
    <symbol id="i-search" viewBox="0 0 24 24"><circle cx="11" cy="11" r="7"/><path d="m20 20-4.2-4.2"/></symbol>
    <symbol id="i-close" viewBox="0 0 24 24"><path d="m6 6 12 12M18 6 6 18"/></symbol>
    <symbol id="i-download" viewBox="0 0 24 24"><path d="M12 3v12m-4-4 4 4 4-4M4 17v3h16v-3"/></symbol>
    <symbol id="i-refresh" viewBox="0 0 24 24"><path d="M20 7v5h-5M4 17v-5h5M18.5 12a6.5 6.5 0 0 0-11-4.7L4 12M5.5 12a6.5 6.5 0 0 0 11 4.7L20 12"/></symbol>
    <symbol id="i-info" viewBox="0 0 24 24"><circle cx="12" cy="12" r="9"/><path d="M12 11v6M12 7.5v.2"/></symbol>
    <symbol id="i-storage" viewBox="0 0 24 24"><ellipse cx="12" cy="6" rx="8" ry="3"/><path d="M4 6v6c0 1.7 3.6 3 8 3s8-1.3 8-3V6M4 12v6c0 1.7 3.6 3 8 3s8-1.3 8-3v-6"/></symbol>
    <symbol id="i-shield" viewBox="0 0 24 24"><path d="M12 3.5 19 6v5.5c0 4.3-2.9 7.3-7 9-4.1-1.7-7-4.7-7-9V6z"/><path d="m9 12 2 2 4-4"/></symbol>
    <symbol id="i-cloud" viewBox="0 0 24 24"><path d="M7 18h11a4 4 0 0 0 .6-8A7 7 0 0 0 5.5 8.5 4.8 4.8 0 0 0 7 18z"/><path d="m9 14 3-3 3 3M12 11v8"/></symbol>
    <symbol id="i-more" viewBox="0 0 24 24"><circle cx="5" cy="12" r="1"/><circle cx="12" cy="12" r="1"/><circle cx="19" cy="12" r="1"/></symbol>
  </defs>
</svg>
